<?xml version="1.0" encoding="UTF-8" standalone="no"?>
<svg width="149px" height="26px" viewBox="0 0 149 26" version="1.1" xmlns="http://www.w3.org/2000/svg" xmlns:xlink="http://www.w3.org/1999/xlink">
    <!-- Generator: Sketch 3.7.1 (28215) - http://www.bohemiancoding.com/sketch -->
    <title>GSMtasks</title>
    <desc>Created with Sketch.</desc>
    <defs></defs>
    <g id="Landing" stroke="none" stroke-width="1" fill="none" fill-rule="evenodd">
        <g id="Landing---Uus" transform="translate(-110.000000, -34.000000)">
            <g id="group">
                <g id="hero">
                    <g id="nav" transform="translate(110.000000, 28.000000)">
                        <g id="GSMtasks" transform="translate(0.000000, 6.000000)">
                            <path d="M72.2865671,23.8224752 C72.1441975,24.162878 71.8053632,24.3851984 71.4290145,24.3851984 C71.0529436,24.3851984 70.7139241,24.162878 70.5717397,23.8225657 L63.7610598,7.54051139 C63.6110946,7.18210224 63.7115037,6.77003578 64.0101373,6.51586479 C64.182889,6.36900842 64.4000097,6.29354434 64.6185199,6.29354434 C64.7783036,6.29354434 64.9389211,6.33362898 65.0836065,6.41596989 L70.57174,10.1320342 C70.57174,10.1320342 71.051481,22.1056515 71.4290147,22.1056515 C71.62309,22.1056515 72.286567,10.1320342 72.286567,10.1320342 L79.7425754,0.64391017 C80.0853927,0.449458956 80.5168553,0.489724563 80.8158594,0.74380507 C81.1149561,0.998066545 81.2151799,1.41004252 81.0652147,1.76845167 L72.2865671,23.8224752 Z" id="Path" fill="#60FA67"></path>
                            <path d="M90.4604651,25.0636364 C89.5992205,25.0636364 88.9277156,24.8303054 88.4459302,24.3636364 C87.9641449,23.8969674 87.7232558,23.1761412 87.7232558,22.2011364 L87.7232558,13.7011364 L85.894186,13.7011364 C85.8003871,13.7011364 85.7236437,13.6761366 85.6639535,13.6261364 C85.6042633,13.5761361 85.5744186,13.5053035 85.5744186,13.4136364 L85.5744186,12.9511364 L87.7488372,12.8011364 L88.055814,8.35113636 C88.0728683,8.27613599 88.1069765,8.20946999 88.1581395,8.15113636 C88.2093026,8.09280274 88.2817825,8.06363636 88.3755814,8.06363636 L88.9511628,8.06363636 L88.9511628,12.8136364 L92.9674419,12.8136364 L92.9674419,13.7011364 L88.9511628,13.7011364 L88.9511628,22.1386364 C88.9511628,22.4803047 88.9959298,22.7740518 89.0854651,23.0198864 C89.1750004,23.2657209 89.2986426,23.4678022 89.4563953,23.6261364 C89.6141481,23.7844705 89.7996113,23.901136 90.0127907,23.9761364 C90.2259701,24.0511367 90.4562003,24.0886364 90.7034884,24.0886364 C91.0104667,24.0886364 91.2748051,24.0448868 91.4965116,23.9573864 C91.7182182,23.8698859 91.9100767,23.7740536 92.072093,23.6698864 C92.2341093,23.5657192 92.3662786,23.4698868 92.4686047,23.3823864 C92.5709307,23.2948859 92.6519377,23.2511364 92.7116279,23.2511364 C92.7798453,23.2511364 92.8480617,23.2928026 92.9162791,23.3761364 L93.2488372,23.9011364 C92.9248046,24.2511381 92.5133746,24.5323853 92.0145349,24.7448864 C91.5156952,24.9573874 90.9976771,25.0636364 90.4604651,25.0636364 L90.4604651,25.0636364 Z M105.193023,18.8511364 C103.982164,18.8928032 102.939733,18.9865523 102.065698,19.1323864 C101.191662,19.2782204 100.471127,19.4761351 99.9040698,19.7261364 C99.3370127,19.9761376 98.9170556,20.2740513 98.644186,20.6198864 C98.3713165,20.9657214 98.2348837,21.3594675 98.2348837,21.8011364 C98.2348837,22.2178051 98.3052319,22.5782182 98.4459302,22.8823864 C98.5866286,23.1865546 98.7742236,23.4365521 99.0087209,23.6323864 C99.2432182,23.8282207 99.513952,23.9719692 99.8209302,24.0636364 C100.127909,24.1553035 100.447673,24.2011364 100.780233,24.2011364 C101.274809,24.2011364 101.728874,24.1490536 102.142442,24.0448864 C102.55601,23.9407192 102.939727,23.7948873 103.293605,23.6073864 C103.647482,23.4198854 103.977905,23.196971 104.284884,22.9386364 C104.591862,22.6803017 104.894572,22.4011379 105.193023,22.1011364 L105.193023,18.8511364 Z M97.7104651,14.1886364 C98.3755847,13.5386331 99.0748025,13.0469714 99.8081395,12.7136364 C100.541477,12.3803014 101.372864,12.2136364 102.302326,12.2136364 C102.9845,12.2136364 103.581393,12.3198853 104.093023,12.5323864 C104.604654,12.7448874 105.028874,13.0490511 105.365698,13.4448864 C105.702521,13.8407217 105.956201,14.3198836 106.126744,14.8823864 C106.297288,15.4448892 106.382558,16.0719662 106.382558,16.7636364 L106.382558,24.8636364 L105.896512,24.8636364 C105.640696,24.8636364 105.482946,24.7469709 105.423256,24.5136364 L105.244186,22.9136364 C104.894572,23.2469714 104.547095,23.5469684 104.201744,23.8136364 C103.856394,24.0803044 103.496126,24.3053021 103.12093,24.4886364 C102.745735,24.6719706 102.3407,24.8136359 101.905814,24.9136364 C101.470928,25.0136369 100.993413,25.0636364 100.473256,25.0636364 C100.03837,25.0636364 99.6162811,25.001137 99.2069767,24.8761364 C98.7976724,24.7511357 98.4331411,24.559471 98.1133721,24.3011364 C97.7936031,24.0428017 97.5377917,23.7115551 97.3459302,23.3073864 C97.1540688,22.9032177 97.0581395,22.4178059 97.0581395,21.8511364 C97.0581395,21.3261337 97.2116264,20.8386386 97.5186047,20.3886364 C97.8255829,19.9386341 98.3073611,19.5469714 98.9639535,19.2136364 C99.6205459,18.8803014 100.462592,18.6136374 101.490116,18.4136364 C102.517641,18.2136354 103.751931,18.0969699 105.193023,18.0636364 L105.193023,16.7636364 C105.193023,15.6136306 104.939344,14.7282228 104.431977,14.1073864 C103.92461,13.4865499 103.172098,13.1761364 102.174419,13.1761364 C101.560462,13.1761364 101.03818,13.2594689 100.607558,13.4261364 C100.176936,13.5928039 99.8124046,13.7761354 99.5139535,13.9761364 C99.2155024,14.1761374 98.9724816,14.3594689 98.7848837,14.5261364 C98.5972859,14.6928039 98.4395355,14.7761364 98.3116279,14.7761364 C98.217829,14.7761364 98.1410856,14.7553032 98.0813953,14.7136364 C98.0217051,14.6719695 97.9705428,14.6178034 97.927907,14.5511364 L97.7104651,14.1886364 Z M119.772093,13.9636364 C119.703876,14.0803036 119.605815,14.1386364 119.477907,14.1386364 C119.384108,14.1386364 119.264729,14.0865536 119.119767,13.9823864 C118.974805,13.8782192 118.780815,13.7615537 118.537791,13.6323864 C118.294766,13.5032191 117.994188,13.3865536 117.636047,13.2823864 C117.277905,13.1782192 116.843026,13.1261364 116.331395,13.1261364 C115.870928,13.1261364 115.450971,13.1907191 115.071512,13.3198864 C114.692052,13.4490537 114.368025,13.6219686 114.099419,13.8386364 C113.830813,14.0553041 113.624032,14.3073849 113.47907,14.5948864 C113.334108,14.8823878 113.261628,15.1844681 113.261628,15.5011364 C113.261628,15.892805 113.363952,16.2178017 113.568605,16.4761364 C113.773257,16.734471 114.039727,16.9553021 114.368023,17.1386364 C114.696319,17.3219706 115.073641,17.4803024 115.5,17.6136364 C115.926359,17.7469704 116.359106,17.8803024 116.798256,18.0136364 C117.237405,18.1469704 117.670153,18.2948856 118.096512,18.4573864 C118.52287,18.6198872 118.900192,18.8219685 119.228488,19.0636364 C119.556785,19.3053042 119.823255,19.6011346 120.027907,19.9511364 C120.232559,20.3011381 120.334884,20.7261339 120.334884,21.2261364 C120.334884,21.7678057 120.236823,22.2719674 120.040698,22.7386364 C119.844573,23.2053054 119.556785,23.609468 119.177326,23.9511364 C118.797866,24.2928047 118.331011,24.5636354 117.776744,24.7636364 C117.222478,24.9636374 116.587213,25.0636364 115.87093,25.0636364 C114.975577,25.0636364 114.203879,24.9240544 113.555814,24.6448864 C112.907749,24.3657183 112.32791,24.0011386 111.816279,23.5511364 L112.097674,23.1261364 C112.14031,23.0594694 112.189341,23.0094699 112.244767,22.9761364 C112.300194,22.9428029 112.374806,22.9261364 112.468605,22.9261364 C112.579458,22.9261364 112.713759,22.9928024 112.871512,23.1261364 C113.029264,23.2594704 113.240309,23.4032189 113.504651,23.5573864 C113.768994,23.7115538 114.095153,23.8553024 114.48314,23.9886364 C114.871126,24.1219704 115.350772,24.1886364 115.922093,24.1886364 C116.459305,24.1886364 116.932556,24.1157204 117.34186,23.9698864 C117.751165,23.8240523 118.092247,23.6261376 118.365116,23.3761364 C118.637986,23.1261351 118.844767,22.8323881 118.985465,22.4948864 C119.126163,22.1573847 119.196512,21.8011382 119.196512,21.4261364 C119.196512,21.0094676 119.094187,20.6636377 118.889535,20.3886364 C118.684883,20.113635 118.416281,19.880304 118.083721,19.6886364 C117.751161,19.4969687 117.373839,19.3344704 116.951744,19.2011364 C116.529649,19.0678024 116.096901,18.9344704 115.653488,18.8011364 C115.210075,18.6678024 114.777328,18.5219705 114.355233,18.3636364 C113.933137,18.2053022 113.555816,18.0053042 113.223256,17.7636364 C112.890696,17.5219685 112.622094,17.2282214 112.417442,16.8823864 C112.21279,16.5365513 112.110465,16.1053056 112.110465,15.5886364 C112.110465,15.1469675 112.208526,14.7219717 112.404651,14.3136364 C112.600776,13.905301 112.880037,13.5469712 113.242442,13.2386364 C113.604847,12.9303015 114.046121,12.6844706 114.566279,12.5011364 C115.086437,12.3178021 115.670539,12.2261364 116.318605,12.2261364 C117.094578,12.2261364 117.783137,12.3344686 118.384302,12.5511364 C118.985468,12.7678041 119.533331,13.1011341 120.027907,13.5511364 L119.772093,13.9636364 Z M127.201163,6.67613636 L127.201163,17.7636364 L127.789535,17.7636364 C127.908915,17.7636364 128.021899,17.7469699 128.128488,17.7136364 C128.235078,17.6803029 128.352325,17.601137 128.480233,17.4761364 L133.583721,12.7386364 C133.668993,12.6386359 133.76279,12.5615533 133.865116,12.5073864 C133.967442,12.4532194 134.095348,12.4261364 134.248837,12.4261364 L135.323256,12.4261364 L129.70814,17.6386364 C129.55465,17.8136372 129.388373,17.9511359 129.209302,18.0511364 C129.345737,18.1178034 129.462984,18.1948859 129.561047,18.2823864 C129.659109,18.3698868 129.755038,18.4719691 129.848837,18.5886364 L135.745349,24.8636364 L134.683721,24.8636364 C134.56434,24.8636364 134.455621,24.8448866 134.357558,24.8073864 C134.259496,24.7698862 134.16783,24.6928036 134.082558,24.5761364 L128.736047,18.9761364 C128.667829,18.901136 128.601745,18.8386366 128.537791,18.7886364 C128.473837,18.7386361 128.407752,18.6990532 128.339535,18.6698864 C128.271317,18.6407196 128.192442,18.6198864 128.102907,18.6073864 C128.013372,18.5948863 127.904652,18.5886364 127.776744,18.5886364 L127.201163,18.5886364 L127.201163,24.8636364 L125.973256,24.8636364 L125.973256,6.67613636 L127.201163,6.67613636 Z M147.472093,13.9636364 C147.403876,14.0803036 147.305815,14.1386364 147.177907,14.1386364 C147.084108,14.1386364 146.964729,14.0865536 146.819767,13.9823864 C146.674805,13.8782192 146.480815,13.7615537 146.237791,13.6323864 C145.994766,13.5032191 145.694188,13.3865536 145.336047,13.2823864 C144.977905,13.1782192 144.543026,13.1261364 144.031395,13.1261364 C143.570928,13.1261364 143.150971,13.1907191 142.771512,13.3198864 C142.392052,13.4490537 142.068025,13.6219686 141.799419,13.8386364 C141.530813,14.0553041 141.324032,14.3073849 141.17907,14.5948864 C141.034108,14.8823878 140.961628,15.1844681 140.961628,15.5011364 C140.961628,15.892805 141.063952,16.2178017 141.268605,16.4761364 C141.473257,16.734471 141.739727,16.9553021 142.068023,17.1386364 C142.396319,17.3219706 142.773641,17.4803024 143.2,17.6136364 C143.626359,17.7469704 144.059106,17.8803024 144.498256,18.0136364 C144.937405,18.1469704 145.370153,18.2948856 145.796512,18.4573864 C146.22287,18.6198872 146.600192,18.8219685 146.928488,19.0636364 C147.256785,19.3053042 147.523255,19.6011346 147.727907,19.9511364 C147.932559,20.3011381 148.034884,20.7261339 148.034884,21.2261364 C148.034884,21.7678057 147.936823,22.2719674 147.740698,22.7386364 C147.544573,23.2053054 147.256785,23.609468 146.877326,23.9511364 C146.497866,24.2928047 146.031011,24.5636354 145.476744,24.7636364 C144.922478,24.9636374 144.287213,25.0636364 143.57093,25.0636364 C142.675577,25.0636364 141.903879,24.9240544 141.255814,24.6448864 C140.607749,24.3657183 140.02791,24.0011386 139.516279,23.5511364 L139.797674,23.1261364 C139.84031,23.0594694 139.889341,23.0094699 139.944767,22.9761364 C140.000194,22.9428029 140.074806,22.9261364 140.168605,22.9261364 C140.279458,22.9261364 140.413759,22.9928024 140.571512,23.1261364 C140.729264,23.2594704 140.940309,23.4032189 141.204651,23.5573864 C141.468994,23.7115538 141.795153,23.8553024 142.18314,23.9886364 C142.571126,24.1219704 143.050772,24.1886364 143.622093,24.1886364 C144.159305,24.1886364 144.632556,24.1157204 145.04186,23.9698864 C145.451165,23.8240523 145.792247,23.6261376 146.065116,23.3761364 C146.337986,23.1261351 146.544767,22.8323881 146.685465,22.4948864 C146.826163,22.1573847 146.896512,21.8011382 146.896512,21.4261364 C146.896512,21.0094676 146.794187,20.6636377 146.589535,20.3886364 C146.384883,20.113635 146.116281,19.880304 145.783721,19.6886364 C145.451161,19.4969687 145.073839,19.3344704 144.651744,19.2011364 C144.229649,19.0678024 143.796901,18.9344704 143.353488,18.8011364 C142.910075,18.6678024 142.477328,18.5219705 142.055233,18.3636364 C141.633137,18.2053022 141.255816,18.0053042 140.923256,17.7636364 C140.590696,17.5219685 140.322094,17.2282214 140.117442,16.8823864 C139.91279,16.5365513 139.810465,16.1053056 139.810465,15.5886364 C139.810465,15.1469675 139.908526,14.7219717 140.104651,14.3136364 C140.300776,13.905301 140.580037,13.5469712 140.942442,13.2386364 C141.304847,12.9303015 141.746121,12.6844706 142.266279,12.5011364 C142.786437,12.3178021 143.370539,12.2261364 144.018605,12.2261364 C144.794578,12.2261364 145.483137,12.3344686 146.084302,12.5511364 C146.685468,12.7678041 147.233331,13.1011341 147.727907,13.5511364 L147.472093,13.9636364 Z" id="tasks" fill="#FFFFFF"></path>
                            <path d="M10.9744186,15.6261364 L17.344186,15.6261364 L17.344186,23.1136364 C16.3976697,23.7886397 15.3893464,24.2823848 14.319186,24.5948864 C13.2490257,24.9073879 12.1170602,25.0636364 10.9232558,25.0636364 C9.39689159,25.0636364 8.01551006,24.8323887 6.77906977,24.3698864 C5.54262948,23.9073841 4.48527571,23.2636405 3.60697674,22.4386364 C2.72867778,21.6136322 2.05077758,20.6344754 1.57325581,19.5011364 C1.09573405,18.3677974 0.856976744,17.1303097 0.856976744,15.7886364 C0.856976744,14.4302962 1.08507524,13.1844754 1.54127907,12.0511364 C1.9974829,10.9177974 2.6476702,9.94280711 3.49186047,9.12613636 C4.33605073,8.30946561 5.35716455,7.67197199 6.55523256,7.21363636 C7.75330056,6.75530074 9.09417863,6.52613636 10.577907,6.52613636 C11.3453527,6.52613636 12.0616246,6.58655243 12.7267442,6.70738636 C13.3918638,6.8282203 14.0058111,6.9948853 14.5686047,7.20738636 C15.1313982,7.41988743 15.6472845,7.67196824 16.1162791,7.96363636 C16.5852737,8.25530449 17.011626,8.57613461 17.3953488,8.92613636 L16.2825581,10.6011364 C16.1120147,10.8678044 15.8903114,11.0303027 15.6174419,11.0886364 C15.3445723,11.14697 15.0461257,11.080304 14.722093,10.8886364 C14.4151147,10.7053021 14.1145364,10.5407204 13.8203488,10.3948864 C13.5261613,10.2490523 13.2127924,10.1219702 12.8802326,10.0136364 C12.5476728,9.90530249 12.1852733,9.82196999 11.7930233,9.76363636 C11.4007732,9.70530274 10.9488398,9.67613636 10.4372093,9.67613636 C9.57596469,9.67613636 8.79573993,9.82196824 8.09651163,10.1136364 C7.39728333,10.4053045 6.80252183,10.8178004 6.3122093,11.3511364 C5.82189677,11.8844724 5.44457497,12.5261326 5.18023256,13.2761364 C4.91589015,14.0261401 4.78372093,14.8636317 4.78372093,15.7886364 C4.78372093,16.7886414 4.92868072,17.6823824 5.21860465,18.4698864 C5.50852858,19.2573903 5.91782681,19.921967 6.44651163,20.4636364 C6.97519644,21.0053057 7.60832965,21.4178016 8.34593023,21.7011364 C9.08353082,21.9844711 9.90425905,22.1261364 10.8081395,22.1261364 C11.4220961,22.1261364 11.9699588,22.0657203 12.4517442,21.9448864 C12.9335295,21.8240524 13.4046489,21.6594707 13.8651163,21.4511364 L13.8651163,18.4011364 L11.7674419,18.4011364 C11.5201538,18.4011364 11.3261635,18.3365537 11.1854651,18.2073864 C11.0447667,18.0782191 10.9744186,17.9136374 10.9744186,17.7136364 L10.9744186,15.6261364 Z M31.694186,10.2011364 C31.5748056,10.392804 31.4532952,10.5323859 31.3296512,10.6198864 C31.2060071,10.7073868 31.046125,10.7511364 30.85,10.7511364 C30.6624022,10.7511364 30.4598848,10.6865537 30.2424419,10.5573864 C30.0249989,10.4282191 29.7713193,10.2886371 29.4813953,10.1386364 C29.1914714,9.98863561 28.8589166,9.84905368 28.4837209,9.71988636 C28.1085253,9.59071905 27.6693824,9.52613636 27.1662791,9.52613636 C26.2794529,9.52613636 25.6143433,9.71988443 25.1709302,10.1073864 C24.7275172,10.4948883 24.505814,11.0011332 24.505814,11.6261364 C24.505814,12.0261384 24.6273244,12.3573851 24.8703488,12.6198864 C25.1133733,12.8823877 25.4331376,13.1094687 25.8296512,13.3011364 C26.2261648,13.492804 26.6759665,13.6636356 27.1790698,13.8136364 C27.6821731,13.9636371 28.1980594,14.1282188 28.7267442,14.3073864 C29.255429,14.4865539 29.7713153,14.6969685 30.2744186,14.9386364 C30.7775219,15.1803042 31.2273236,15.4844679 31.6238372,15.8511364 C32.0203508,16.2178049 32.3401151,16.6657171 32.5831395,17.1948864 C32.826164,17.7240557 32.9476744,18.3677992 32.9476744,19.1261364 C32.9476744,19.9511405 32.8005829,20.7240494 32.5063953,21.4448864 C32.2122078,22.1657233 31.7879873,22.7948837 31.2337209,23.3323864 C30.6794546,23.8698891 29.9951591,24.2928015 29.180814,24.6011364 C28.3664688,24.9094712 27.443416,25.0636364 26.4116279,25.0636364 C25.8232529,25.0636364 25.2370184,25.0053036 24.652907,24.8886364 C24.0687955,24.7719691 23.5060105,24.6094707 22.9645349,24.4011364 C22.4230593,24.192802 21.9135683,23.9428045 21.4360465,23.6511364 C20.9585247,23.3594682 20.5406995,23.0344715 20.1825581,22.6761364 L21.3081395,20.9011364 C21.4019385,20.7678024 21.5255806,20.6573868 21.6790698,20.5698864 C21.8325589,20.4823859 21.9945728,20.4386364 22.1651163,20.4386364 C22.39535,20.4386364 22.6383708,20.5219689 22.894186,20.6886364 C23.1500013,20.8553039 23.4441844,21.0386354 23.7767442,21.2386364 C24.109304,21.4386374 24.4951528,21.6219689 24.9343023,21.7886364 C25.3734518,21.9553039 25.8999969,22.0386364 26.5139535,22.0386364 C27.4093068,22.0386364 28.1021293,21.8386384 28.5924419,21.4386364 C29.0827544,21.0386344 29.327907,20.442807 29.327907,19.6511364 C29.327907,19.1928007 29.2063966,18.8219711 28.9633721,18.5386364 C28.7203476,18.2553016 28.4027151,18.017804 28.0104651,17.8261364 C27.6182151,17.6344687 27.1705452,17.4698871 26.6674419,17.3323864 C26.1643386,17.1948857 25.6484523,17.0428039 25.1197674,16.8761364 C24.5910826,16.7094689 24.0751963,16.5094709 23.572093,16.2761364 C23.0689897,16.0428019 22.6213198,15.7344716 22.2290698,15.3511364 C21.8368197,14.9678011 21.5191873,14.4928059 21.2761628,13.9261364 C21.0331383,13.3594669 20.9116279,12.6553072 20.9116279,11.8136364 C20.9116279,11.138633 21.0480607,10.4844729 21.3209302,9.85113636 C21.5937998,9.21779986 21.994571,8.65530549 22.5232558,8.16363636 C23.0519406,7.67196724 23.7021279,7.27613786 24.4738372,6.97613636 C25.2455465,6.67613486 26.1302276,6.52613636 27.127907,6.52613636 C28.2449668,6.52613636 29.2788712,6.69488468 30.2296512,7.03238636 C31.1804311,7.36988805 31.9841052,7.83863336 32.6406977,8.43863636 L31.694186,10.2011364 Z M57.3639535,6.72613636 L57.3639535,24.8636364 L53.9744186,24.8636364 L53.9744186,13.7261364 C53.9744186,13.4928019 53.9808139,13.2428044 53.9936047,12.9761364 C54.0063954,12.7094684 54.0298448,12.4386377 54.0639535,12.1636364 L48.755814,22.0011364 C48.46589,22.5428057 48.0182201,22.8136364 47.4127907,22.8136364 L46.8755814,22.8136364 C46.5771303,22.8136364 46.3127918,22.7448871 46.0825581,22.6073864 C45.8523244,22.4698857 45.6689929,22.2678044 45.5325581,22.0011364 L40.1988372,12.1261364 C40.2244187,12.4178045 40.2457363,12.6990517 40.2627907,12.9698864 C40.279845,13.2407211 40.2883721,13.4928019 40.2883721,13.7261364 L40.2883721,24.8636364 L36.8988372,24.8636364 L36.8988372,6.72613636 L39.8151163,6.72613636 C39.9771326,6.72613636 40.1220924,6.73030299 40.25,6.73863636 C40.3779076,6.74696974 40.490891,6.76988618 40.5889535,6.80738636 C40.687016,6.84488655 40.77655,6.9032193 40.8575581,6.98238636 C40.9385663,7.06155343 41.0174415,7.17196899 41.094186,7.31363636 L46.2872093,16.9886364 C46.4492256,17.2803045 46.6005807,17.5803015 46.7412791,17.8886364 C46.8819774,18.1969712 47.0162784,18.5136347 47.144186,18.8386364 C47.2720937,18.5053014 47.4063946,18.1803046 47.547093,17.8636364 C47.6877914,17.5469681 47.8391465,17.2428045 48.0011628,16.9511364 L53.155814,7.31363636 C53.2325585,7.17196899 53.3135655,7.06155343 53.3988372,6.98238636 C53.484109,6.9032193 53.5757747,6.84488655 53.6738372,6.80738636 C53.7718997,6.76988618 53.8827513,6.74696974 54.0063953,6.73863636 C54.1300394,6.73030299 54.2771309,6.72613636 54.4476744,6.72613636 L57.3639535,6.72613636 Z" id="GSM" fill="#FFFFFF"></path>
                        </g>
                    </g>
                </g>
            </g>
        </g>
    </g>
</svg>